<svg width="127" height="24" viewBox="0 0 127 24" fill="none" xmlns="http://www.w3.org/2000/svg">
<path d="M4.80797 21.96C4.21063 21.96 3.5813 21.896 2.91997 21.768C2.27997 21.6613 1.73597 21.48 1.28797 21.224C0.839967 20.968 0.615967 20.6373 0.615967 20.232C0.615967 20.1893 0.647967 20.136 0.711967 20.072C0.754633 19.9867 0.7973 19.976 0.839967 20.04C1.1173 20.3387 1.49063 20.584 1.95997 20.776C2.45063 20.9467 2.96263 21.064 3.49597 21.128C4.05063 21.2133 4.56263 21.256 5.03197 21.256C6.0133 21.256 6.9093 21.128 7.71997 20.872C8.55197 20.5947 9.2133 20.1893 9.70397 19.656C10.1946 19.1013 10.44 18.4187 10.44 17.608C10.44 16.904 10.216 16.264 9.76797 15.688C9.31997 15.0907 8.7653 14.504 8.10397 13.928C7.46397 13.3307 6.8133 12.712 6.15197 12.072C5.51197 11.432 4.96797 10.728 4.51997 9.96C4.07197 9.17066 3.84797 8.264 3.84797 7.24C3.84797 6.45066 4.0613 5.71466 4.48797 5.032C4.93597 4.328 5.52263 3.70933 6.24797 3.17599C6.99463 2.64266 7.8053 2.22666 8.67997 1.928C9.55463 1.62933 10.4293 1.48 11.304 1.48C12.328 1.48 13.096 1.672 13.608 2.056C14.12 2.44 14.376 3.144 14.376 4.168C14.376 4.78666 14.248 5.37333 13.992 5.928C13.736 6.46133 13.3946 6.728 12.968 6.728C12.8826 6.728 12.7973 6.696 12.712 6.632C12.6266 6.54666 12.5946 6.42933 12.616 6.28C12.6586 5.85333 12.7013 5.45866 12.744 5.096C12.7866 4.73333 12.808 4.41333 12.808 4.136C12.808 3.45333 12.6906 2.94133 12.456 2.59999C12.2426 2.23733 11.8266 2.056 11.208 2.056C10.248 2.056 9.31997 2.28 8.42397 2.72799C7.5493 3.15466 6.82397 3.752 6.24797 4.51999C5.67197 5.26666 5.38397 6.10933 5.38397 7.048C5.38397 7.77333 5.60797 8.46666 6.05597 9.128C6.50397 9.78933 7.04797 10.4293 7.68797 11.048C8.3493 11.6667 9.01063 12.296 9.67197 12.936C10.3333 13.5547 10.888 14.1947 11.336 14.856C11.784 15.5173 12.008 16.2213 12.008 16.968C12.008 18.12 11.6453 19.0693 10.92 19.816C10.1946 20.5413 9.2773 21.0747 8.16797 21.416C7.07997 21.7787 5.95997 21.96 4.80797 21.96Z" fill="black"/>
<path d="M13.2612 21.576C13.0906 21.576 13.0052 21.512 13.0052 21.384L13.4212 20.168C13.5066 19.912 13.5705 19.656 13.6132 19.4C13.6559 19.1227 13.7092 18.8453 13.7732 18.568C13.9012 18.0347 14.0292 17.512 14.1572 17C14.3066 16.488 14.4559 15.9653 14.6052 15.432C14.7332 15.0053 14.8506 14.5787 14.9572 14.152C15.0852 13.704 15.1706 13.256 15.2132 12.808C15.2559 12.744 15.1919 12.7227 15.0212 12.744C14.8505 12.744 14.7652 12.7013 14.7652 12.616C14.9359 12.232 15.0639 11.8373 15.1492 11.432C15.2559 11.0267 15.3839 10.632 15.5332 10.248C15.5972 10.0773 15.7679 9.91733 16.0452 9.768C16.3225 9.61866 16.5465 9.544 16.7172 9.544C17.0159 9.544 17.1652 9.736 17.1652 10.12C17.1652 10.3973 17.0906 10.856 16.9412 11.496C16.7919 12.136 16.6106 12.84 16.3972 13.608C16.1839 14.3547 15.9705 15.048 15.7572 15.688C15.5652 16.328 15.4266 16.7973 15.3412 17.096C16.0239 15.88 16.7812 14.728 17.6132 13.64C18.4665 12.5307 19.4266 11.528 20.4932 10.632C20.6852 10.4613 20.9199 10.376 21.1972 10.376C21.7732 10.376 22.0612 10.6213 22.0612 11.112C22.0612 11.3893 22.0079 11.8053 21.9012 12.36C21.7946 12.9147 21.6559 13.5227 21.4852 14.184C21.3146 14.824 21.1545 15.432 21.0052 16.008C20.8559 16.5627 20.7279 16.9893 20.6212 17.288C21.1119 16.7973 21.6346 16.264 22.1892 15.688C22.7439 15.0907 23.2666 14.472 23.7572 13.832C24.2479 13.1707 24.6426 12.5413 24.9412 11.944C24.9412 11.752 25.0479 11.6027 25.2612 11.496C25.4959 11.3893 25.6879 11.336 25.8372 11.336C25.9012 11.336 25.9972 11.3573 26.1252 11.4C26.2106 11.3573 26.2746 11.336 26.3172 11.336C26.5092 11.336 26.6266 11.4853 26.6692 11.784C26.7332 12.0613 26.7652 12.264 26.7652 12.392C26.7652 12.6267 26.7332 12.9573 26.6692 13.384C26.6266 13.7893 26.4772 14.056 26.2212 14.184C26.1999 14.44 26.1786 14.7067 26.1572 14.984C26.1572 15.24 26.1572 15.496 26.1572 15.752C26.1572 15.9867 26.1679 16.328 26.1892 16.776C26.2319 17.224 26.3066 17.6827 26.4132 18.152C26.5199 18.6 26.6799 18.984 26.8932 19.304C27.1066 19.624 27.3839 19.784 27.7252 19.784C28.1092 19.784 28.4399 19.6773 28.7172 19.464C29.0159 19.2507 29.2612 19.0053 29.4532 18.728C29.6666 18.4507 29.8372 18.2053 29.9652 17.992C30.0932 17.7787 30.1892 17.672 30.2532 17.672C30.3599 17.672 30.4132 17.7253 30.4132 17.832C30.4132 17.896 30.3919 17.992 30.3492 18.12C30.2212 18.504 29.9972 18.9093 29.6772 19.336C29.3572 19.7413 28.9946 20.0933 28.5892 20.392C28.1839 20.6907 27.7572 20.84 27.3092 20.84C26.7759 20.84 26.3279 20.6587 25.9652 20.296C25.6239 19.912 25.3466 19.4427 25.1332 18.888C24.9412 18.312 24.8026 17.736 24.7172 17.16C24.6532 16.584 24.6212 16.0933 24.6212 15.688C24.6212 15.2827 24.6319 14.888 24.6532 14.504C24.6959 14.0987 24.7386 13.6933 24.7812 13.288C24.5892 13.5653 24.3866 13.832 24.1732 14.088C23.9599 14.344 23.7572 14.6 23.5652 14.856L21.0052 18.056C21.0052 18.376 20.9306 18.7493 20.7812 19.176C20.6532 19.5813 20.4506 19.9333 20.1732 20.232C19.9172 20.5307 19.5866 20.68 19.1812 20.68C19.0319 20.68 18.9466 20.6267 18.9252 20.52C18.9252 20.392 18.9359 20.2853 18.9572 20.2C18.9145 20.1573 18.8826 20.104 18.8612 20.04C18.8612 19.9547 18.8612 19.88 18.8612 19.816C18.8612 19.6453 18.9039 19.3467 18.9892 18.92C19.0959 18.4933 19.2132 18.0347 19.3412 17.544C19.4906 17.032 19.6292 16.5627 19.7572 16.136C19.8852 15.7093 19.9812 15.4 20.0452 15.208C20.1732 14.7387 20.2906 14.2587 20.3972 13.768C20.5252 13.2773 20.5892 12.7973 20.5892 12.328C20.5892 12.2427 20.5786 12.136 20.5572 12.008C20.5359 11.88 20.4612 11.816 20.3332 11.816C20.0986 11.816 19.8106 11.976 19.4692 12.296C19.1492 12.616 18.8079 13 18.4452 13.448C18.1039 13.896 17.7946 14.3227 17.5172 14.728C17.2399 15.1333 17.0479 15.4213 16.9412 15.592C16.7066 15.9333 16.3972 16.4133 16.0132 17.032C15.6292 17.6293 15.2879 18.248 14.9892 18.888C14.6906 19.528 14.5412 20.0613 14.5412 20.488V20.616C14.5412 20.808 14.3706 21.0107 14.0292 21.224C13.7092 21.4587 13.4532 21.576 13.2612 21.576Z" fill="black"/>
<path d="M37.9027 21.224C37.3054 21.224 36.8574 21.0107 36.5587 20.584C36.26 20.1573 36.0574 19.6667 35.9507 19.112C35.8654 18.536 35.8227 18.024 35.8227 17.576C35.8227 17.128 35.8441 16.6907 35.8867 16.264C35.9507 15.816 36.0147 15.3787 36.0787 14.952C35.8654 15.2293 35.5667 15.624 35.1827 16.136C34.7987 16.6267 34.3614 17.1707 33.8707 17.768C33.38 18.344 32.8787 18.8987 32.3667 19.432C31.8547 19.944 31.3534 20.3707 30.8627 20.712C30.3934 21.032 29.9881 21.192 29.6467 21.192C29.3481 21.192 29.1561 21.0533 29.0707 20.776C29.0067 20.4987 28.9747 20.2533 28.9747 20.04C28.9747 19.08 29.1667 18.0667 29.5507 17C29.9347 15.9333 30.3294 14.9733 30.7347 14.12C30.8414 13.8853 31.0014 13.5653 31.2147 13.16C31.428 12.7547 31.6734 12.3387 31.9507 11.912C32.2494 11.4853 32.5587 11.1333 32.8787 10.856C33.1987 10.5787 33.5187 10.4613 33.8387 10.504C34.0734 10.3547 34.2974 10.2267 34.5107 10.12C34.7454 9.992 35.0014 9.928 35.2787 9.928C35.4494 9.928 35.7267 9.98133 36.1107 10.088C36.5161 10.1947 36.804 10.2693 36.9747 10.312C37.06 10.1413 37.1881 10.0133 37.3587 9.928C37.5294 9.84266 37.7 9.8 37.8707 9.8C38.0414 9.8 38.1587 9.81066 38.2227 9.832C38.3081 9.78933 38.3721 9.768 38.4147 9.768C38.5427 9.768 38.6281 9.864 38.6707 10.056C38.7134 10.2267 38.7347 10.3653 38.7347 10.472C38.7347 10.7493 38.7027 10.9947 38.6387 11.208C38.5747 11.4213 38.4894 11.656 38.3827 11.912C38.2974 12.1253 38.2227 12.328 38.1587 12.52C38.1161 12.6907 37.9987 12.8507 37.8067 13C37.6574 13.768 37.54 14.5467 37.4547 15.336C37.3907 16.104 37.3587 16.8827 37.3587 17.672C37.3587 17.9493 37.3694 18.28 37.3907 18.664C37.4334 19.048 37.5294 19.3893 37.6787 19.688C37.8494 19.9867 38.1054 20.136 38.4467 20.136C38.98 20.136 39.4494 19.944 39.8547 19.56C40.2814 19.1547 40.6334 18.7707 40.9107 18.408C40.9534 18.344 41.0067 18.28 41.0707 18.216C41.1347 18.1307 41.2094 18.0667 41.2947 18.024L41.3907 18.216C41.3907 18.4293 41.2841 18.6853 41.0707 18.984C40.8574 19.2827 40.6227 19.5707 40.3667 19.848C40.1107 20.104 39.8974 20.296 39.7267 20.424C39.4707 20.6373 39.1827 20.8293 38.8627 21C38.5641 21.1493 38.2441 21.224 37.9027 21.224ZM30.7347 19.88C30.8627 19.88 31.0014 19.8267 31.1507 19.72C31.3001 19.6133 31.4174 19.5173 31.5027 19.432C32.5054 18.5573 33.3907 17.576 34.1587 16.488C34.9481 15.4 35.6307 14.2693 36.2067 13.096C36.2707 12.9893 36.3347 12.872 36.3987 12.744C36.4627 12.616 36.5054 12.488 36.5267 12.36C36.5694 12.1893 36.612 12.008 36.6547 11.816C36.6974 11.6027 36.7294 11.4107 36.7507 11.24C36.7294 11.1333 36.612 11.0373 36.3987 10.952C36.1854 10.8667 35.9507 10.8027 35.6947 10.76C35.4601 10.696 35.2894 10.664 35.1827 10.664C34.7774 10.664 34.4147 10.8347 34.0947 11.176C33.7961 11.496 33.5401 11.8053 33.3267 12.104C33.0707 12.488 32.7721 12.9893 32.4307 13.608C32.1107 14.2267 31.7907 14.888 31.4707 15.592C31.172 16.2747 30.9161 16.936 30.7027 17.576C30.5107 18.216 30.4147 18.76 30.4147 19.208C30.4147 19.3147 30.4254 19.4533 30.4467 19.624C30.4894 19.7947 30.5854 19.88 30.7347 19.88Z" fill="black"/>
<path d="M40.8877 21.576C40.7171 21.576 40.6104 21.512 40.5677 21.384C40.6531 21.192 40.7384 21 40.8237 20.808C40.909 20.616 40.9837 20.4133 41.0477 20.2C41.4317 19.0693 41.773 17.928 42.0717 16.776C42.3917 15.624 42.7011 14.472 42.9997 13.32L43.2557 12.328C43.2557 12.264 43.181 12.2427 43.0317 12.264C42.8824 12.264 42.7971 12.232 42.7757 12.168C42.9251 11.784 43.0531 11.4 43.1597 11.016C43.2877 10.6107 43.4264 10.216 43.5757 9.832C43.6397 9.66133 43.8424 9.50133 44.1837 9.352C44.525 9.20266 44.7811 9.128 44.9517 9.128C45.2504 9.128 45.3997 9.26666 45.3997 9.544C45.3997 9.69333 45.325 10.0027 45.1757 10.472C45.0477 10.92 44.877 11.4533 44.6637 12.072C44.4717 12.6693 44.2584 13.288 44.0237 13.928C43.8104 14.5467 43.6077 15.1227 43.4157 15.656C43.2451 16.168 43.117 16.5627 43.0317 16.84C43.4157 16.072 43.8744 15.24 44.4077 14.344C44.9411 13.448 45.5277 12.5947 46.1677 11.784C46.8077 10.9733 47.4904 10.3333 48.2157 9.864C48.4504 9.71466 48.6637 9.64 48.8557 9.64C49.3037 9.64 49.6344 9.87466 49.8477 10.344C50.0611 10.792 50.1677 11.1973 50.1677 11.56C50.1677 11.688 50.1357 11.8907 50.0717 12.168C50.0077 12.424 49.9117 12.6693 49.7837 12.904C49.6771 13.1173 49.5384 13.224 49.3677 13.224C49.2397 13.224 49.1544 13.128 49.1117 12.936C49.0691 12.7227 49.0264 12.488 48.9837 12.232C48.9411 11.9547 48.8664 11.72 48.7597 11.528C48.653 11.3147 48.4824 11.208 48.2477 11.208C47.9064 11.208 47.5224 11.4213 47.0957 11.848C46.6691 12.2533 46.2317 12.776 45.7837 13.416C45.3357 14.056 44.8984 14.7387 44.4717 15.464C44.0664 16.168 43.7037 16.8187 43.3837 17.416C43.085 18.0133 42.8717 18.472 42.7437 18.792C42.7651 18.856 42.7757 18.952 42.7757 19.08C42.7757 19.3147 42.7224 19.592 42.6157 19.912C42.5304 20.2107 42.4344 20.4773 42.3277 20.712C42.3277 20.84 42.2317 20.968 42.0397 21.096C41.8691 21.224 41.6664 21.3307 41.4317 21.416C41.1971 21.5227 41.0157 21.576 40.8877 21.576Z" fill="black"/>
<path d="M51.5457 20.968C51.375 20.968 51.2044 20.9147 51.0337 20.808C50.8844 20.7013 50.8097 20.5413 50.8097 20.328C50.8097 20.1573 50.8417 19.976 50.9057 19.784C50.9697 19.5707 51.0124 19.3893 51.0337 19.24C51.3964 17.832 51.7804 16.4347 52.1857 15.048C52.6124 13.64 53.0284 12.2427 53.4337 10.856H52.5377C52.4737 10.856 52.4097 10.8667 52.3457 10.888C52.2817 10.888 52.2177 10.888 52.1537 10.888H52.0257C52.0044 10.888 51.9937 10.8987 51.9937 10.92C51.8657 10.856 51.8017 10.76 51.8017 10.632C51.8017 10.5253 51.823 10.44 51.8657 10.376C51.9297 10.312 51.9937 10.2587 52.0577 10.216C52.1644 10.1093 52.2924 10.0453 52.4417 10.024C52.6124 10.0027 52.7724 9.992 52.9217 9.992C53.0497 9.992 53.1777 10.0027 53.3057 10.024C53.4551 10.024 53.5937 10.024 53.7217 10.024C53.7857 9.832 53.8711 9.56533 53.9777 9.224C54.0844 8.86133 54.1804 8.49866 54.2657 8.136C54.351 7.77333 54.3937 7.50666 54.3937 7.336C54.3937 7.22933 54.319 7.18666 54.1697 7.208C54.0417 7.22933 53.9671 7.208 53.9457 7.144C54.0951 6.76 54.223 6.376 54.3297 5.992C54.4577 5.58666 54.5751 5.18133 54.6817 4.776C54.7244 4.584 54.8844 4.424 55.1617 4.296C55.439 4.14666 55.6737 4.07199 55.8657 4.07199C56.0577 4.07199 56.1857 4.136 56.2497 4.264C56.3137 4.37066 56.3457 4.50933 56.3457 4.67999C56.3457 4.91466 56.2817 5.27733 56.1537 5.768C56.0257 6.25866 55.8764 6.792 55.7057 7.368C55.5351 7.92266 55.3644 8.44533 55.1937 8.936C55.0444 9.42666 54.9271 9.78933 54.8417 10.024H58.4257C58.447 10.024 58.4897 10.056 58.5537 10.12C58.5537 10.2053 58.4044 10.28 58.1057 10.344C57.8284 10.3867 57.6684 10.408 57.6257 10.408C57.1351 10.4933 56.6337 10.568 56.1217 10.632C55.6097 10.6747 55.0977 10.7173 54.5857 10.76C54.4577 11.1653 54.2657 11.7413 54.0097 12.488C53.775 13.2347 53.5191 14.0347 53.2417 14.888C52.9857 15.7413 52.7617 16.5413 52.5697 17.288C52.3777 18.0133 52.2817 18.5573 52.2817 18.92C52.2817 19.112 52.3137 19.3147 52.3777 19.528C52.463 19.72 52.623 19.816 52.8577 19.816C53.1777 19.816 53.5084 19.6987 53.8497 19.464C54.2124 19.2293 54.5537 18.9627 54.8737 18.664C55.2151 18.3653 55.5031 18.0987 55.7377 17.864C55.9724 17.6293 56.1324 17.512 56.2177 17.512C56.3244 17.512 56.3777 17.5867 56.3777 17.736C56.3777 17.7787 56.3671 17.8747 56.3457 18.024C56.3457 18.1733 56.2924 18.248 56.1857 18.248C55.9724 18.4613 55.6631 18.728 55.2577 19.048C54.8737 19.3467 54.4471 19.6453 53.9777 19.944C53.5297 20.2213 53.0817 20.4667 52.6337 20.68C52.207 20.872 51.8444 20.968 51.5457 20.968Z" fill="black"/>
<path d="M60.2767 23.368C59.6581 23.368 59.1567 22.9733 58.7727 22.184C58.41 21.3947 58.2287 20.264 58.2287 18.792C58.2287 17.9813 58.3247 16.9893 58.5167 15.816C58.73 14.6213 58.9967 13.352 59.3167 12.008C59.6367 10.664 59.9887 9.36266 60.3727 8.104C60.7781 6.824 61.1727 5.68266 61.5567 4.67999C61.9621 3.656 62.3247 2.87733 62.6447 2.344C62.3674 2.28 62.0687 2.23733 61.7487 2.216C61.4287 2.17333 61.2367 2.09866 61.1727 1.99199C61.0661 1.82133 61.1087 1.66133 61.3007 1.512C61.514 1.36266 61.8767 1.28799 62.3887 1.28799C62.4954 1.28799 62.6021 1.28799 62.7087 1.28799C62.8154 1.28799 62.9327 1.29866 63.0607 1.32C63.1674 1.14933 63.2741 0.989328 63.3807 0.839994C63.5087 0.690662 63.6794 0.615995 63.8927 0.615995C64.106 0.615995 64.2554 0.722662 64.3407 0.935995C64.4261 1.128 64.4687 1.34133 64.4687 1.57599C65.1087 1.72533 65.8767 1.97066 66.7727 2.31199C67.6687 2.632 68.5541 3.03733 69.4287 3.528C70.3247 4.01866 71.0607 4.59466 71.6367 5.256C72.2341 5.896 72.5327 6.632 72.5327 7.464C72.5327 8.25333 72.2767 8.94666 71.7647 9.544C71.2527 10.1413 70.6234 10.6533 69.8767 11.08C69.13 11.4853 68.394 11.816 67.6687 12.072C66.9434 12.328 66.3674 12.52 65.9407 12.648C67.3274 12.648 68.6287 12.8187 69.8447 13.16C71.0607 13.5013 72.0421 14.0027 72.7887 14.664C73.5567 15.3253 73.9407 16.136 73.9407 17.096C73.9407 17.8853 73.6847 18.5787 73.1727 19.176C72.6607 19.752 71.9674 20.232 71.0927 20.616C70.2181 21 69.2367 21.2773 68.1487 21.448C67.0607 21.64 65.9407 21.736 64.7887 21.736C64.5967 21.736 64.4047 21.736 64.2127 21.736C64.0421 21.736 63.8607 21.7253 63.6687 21.704C63.242 21.6827 62.7834 21.6507 62.2927 21.608C61.8234 21.5653 61.4394 21.512 61.1407 21.448C61.034 21.4267 60.8954 21.3627 60.7247 21.256C60.554 21.1707 60.4687 21.032 60.4687 20.84C60.4687 20.6053 60.6074 20.52 60.8847 20.584C61.2474 20.6693 61.6421 20.7547 62.0687 20.84C62.5167 20.9253 63.0714 21 63.7327 21.064C63.946 21.0853 64.17 21.096 64.4047 21.096C64.6394 21.1173 64.8741 21.128 65.1087 21.128C65.9194 21.128 66.7514 21.0533 67.6047 20.904C68.4794 20.7547 69.2794 20.5307 70.0047 20.232C70.73 19.912 71.3167 19.5173 71.7647 19.048C72.2127 18.5787 72.4367 18.0133 72.4367 17.352C72.4367 16.7973 72.2554 16.3067 71.8927 15.88C71.53 15.4533 71.0714 15.0907 70.5167 14.792C69.9834 14.472 69.4287 14.216 68.8527 14.024C68.2767 13.8107 67.7754 13.6613 67.3487 13.576C66.7727 13.448 66.186 13.3627 65.5887 13.32C64.9914 13.256 64.3941 13.224 63.7967 13.224C63.1141 13.224 62.4314 13.2667 61.7487 13.352C61.0661 13.416 60.6074 13.4693 60.3727 13.512C60.2661 13.9813 60.1274 14.6213 59.9567 15.432C59.7861 16.2213 59.6367 17.0533 59.5087 17.928C59.3807 18.8027 59.3167 19.5813 59.3167 20.264C59.3167 21.0533 59.4447 21.6827 59.7007 22.152C59.9781 22.6427 60.234 22.9093 60.4687 22.952C60.554 22.952 60.5967 22.9947 60.5967 23.08C60.5967 23.272 60.4901 23.368 60.2767 23.368ZM60.5967 12.712C61.1301 12.712 61.8341 12.6587 62.7087 12.552C63.6047 12.4453 64.5434 12.2747 65.5247 12.04C66.5061 11.784 67.4234 11.464 68.2767 11.08C69.1514 10.696 69.866 10.2267 70.4207 9.672C70.9754 9.11733 71.2527 8.47733 71.2527 7.752C71.2527 7.048 70.9754 6.41866 70.4207 5.864C69.8874 5.288 69.2154 4.79733 68.4047 4.39199C67.594 3.96533 66.7834 3.61333 65.9727 3.33599C65.1621 3.05866 64.4794 2.856 63.9247 2.72799C63.1994 4.34933 62.57 5.992 62.0367 7.656C61.5247 9.32 61.0447 11.0053 60.5967 12.712Z" fill="black"/>
<path d="M85.1215 21.224C84.5241 21.224 84.0761 21.0107 83.7775 20.584C83.4788 20.1573 83.2761 19.6667 83.1695 19.112C83.0841 18.536 83.0415 18.024 83.0415 17.576C83.0415 17.128 83.0628 16.6907 83.1055 16.264C83.1695 15.816 83.2335 15.3787 83.2975 14.952C83.0841 15.2293 82.7855 15.624 82.4015 16.136C82.0175 16.6267 81.5801 17.1707 81.0895 17.768C80.5988 18.344 80.0975 18.8987 79.5855 19.432C79.0735 19.944 78.5721 20.3707 78.0815 20.712C77.6121 21.032 77.2068 21.192 76.8655 21.192C76.5668 21.192 76.3748 21.0533 76.2895 20.776C76.2255 20.4987 76.1935 20.2533 76.1935 20.04C76.1935 19.08 76.3855 18.0667 76.7695 17C77.1535 15.9333 77.5481 14.9733 77.9535 14.12C78.0601 13.8853 78.2201 13.5653 78.4335 13.16C78.6468 12.7547 78.8921 12.3387 79.1695 11.912C79.4681 11.4853 79.7775 11.1333 80.0975 10.856C80.4175 10.5787 80.7375 10.4613 81.0575 10.504C81.2921 10.3547 81.5161 10.2267 81.7295 10.12C81.9641 9.992 82.2201 9.928 82.4975 9.928C82.6681 9.928 82.9455 9.98133 83.3295 10.088C83.7348 10.1947 84.0228 10.2693 84.1935 10.312C84.2788 10.1413 84.4068 10.0133 84.5775 9.928C84.7481 9.84266 84.9188 9.8 85.0895 9.8C85.2601 9.8 85.3775 9.81066 85.4415 9.832C85.5268 9.78933 85.5908 9.768 85.6335 9.768C85.7615 9.768 85.8468 9.864 85.8895 10.056C85.9321 10.2267 85.9535 10.3653 85.9535 10.472C85.9535 10.7493 85.9215 10.9947 85.8575 11.208C85.7935 11.4213 85.7081 11.656 85.6015 11.912C85.5161 12.1253 85.4415 12.328 85.3775 12.52C85.3348 12.6907 85.2175 12.8507 85.0255 13C84.8761 13.768 84.7588 14.5467 84.6735 15.336C84.6095 16.104 84.5775 16.8827 84.5775 17.672C84.5775 17.9493 84.5881 18.28 84.6095 18.664C84.6521 19.048 84.7481 19.3893 84.8975 19.688C85.0681 19.9867 85.3241 20.136 85.6655 20.136C86.1988 20.136 86.6681 19.944 87.0735 19.56C87.5001 19.1547 87.8521 18.7707 88.1295 18.408C88.1721 18.344 88.2255 18.28 88.2895 18.216C88.3535 18.1307 88.4281 18.0667 88.5135 18.024L88.6095 18.216C88.6095 18.4293 88.5028 18.6853 88.2895 18.984C88.0761 19.2827 87.8415 19.5707 87.5855 19.848C87.3295 20.104 87.1161 20.296 86.9455 20.424C86.6895 20.6373 86.4015 20.8293 86.0815 21C85.7828 21.1493 85.4628 21.224 85.1215 21.224ZM77.9535 19.88C78.0815 19.88 78.2201 19.8267 78.3695 19.72C78.5188 19.6133 78.6361 19.5173 78.7215 19.432C79.7241 18.5573 80.6095 17.576 81.3775 16.488C82.1668 15.4 82.8495 14.2693 83.4255 13.096C83.4895 12.9893 83.5535 12.872 83.6175 12.744C83.6815 12.616 83.7241 12.488 83.7455 12.36C83.7881 12.1893 83.8308 12.008 83.8735 11.816C83.9161 11.6027 83.9481 11.4107 83.9695 11.24C83.9481 11.1333 83.8308 11.0373 83.6175 10.952C83.4041 10.8667 83.1695 10.8027 82.9135 10.76C82.6788 10.696 82.5081 10.664 82.4015 10.664C81.9961 10.664 81.6335 10.8347 81.3135 11.176C81.0148 11.496 80.7588 11.8053 80.5455 12.104C80.2895 12.488 79.9908 12.9893 79.6495 13.608C79.3295 14.2267 79.0095 14.888 78.6895 15.592C78.3908 16.2747 78.1348 16.936 77.9215 17.576C77.7295 18.216 77.6335 18.76 77.6335 19.208C77.6335 19.3147 77.6441 19.4533 77.6655 19.624C77.7081 19.7947 77.8041 19.88 77.9535 19.88Z" fill="black"/>
<path d="M88.9385 21.192C88.5545 21.192 88.3625 21.032 88.3625 20.712C88.3625 20.456 88.5331 20.2427 88.8745 20.072C89.2371 19.88 89.6638 19.72 90.1545 19.592C90.6665 19.464 91.1465 19.368 91.5945 19.304C92.0425 19.24 92.3625 19.1973 92.5545 19.176C92.6611 19.0693 92.7465 18.952 92.8105 18.824C92.8745 18.6747 92.9065 18.5253 92.9065 18.376C92.9065 18.2053 92.8531 18.0667 92.7465 17.96C92.6611 17.832 92.5438 17.7253 92.3945 17.64C92.0105 17.4053 91.5305 17.096 90.9545 16.712C90.3785 16.328 89.8665 15.9013 89.4185 15.432C88.9918 14.9413 88.7785 14.44 88.7785 13.928C88.7785 13.6293 88.8531 13.3947 89.0025 13.224C89.3865 12.7333 89.8771 12.1893 90.4745 11.592C91.0931 10.9733 91.7545 10.4507 92.4585 10.024C93.1838 9.576 93.8771 9.352 94.5385 9.352C95.1358 9.352 95.4985 9.448 95.6265 9.64C95.7545 9.832 95.8185 10.1947 95.8185 10.728C95.8185 11.0907 95.7545 11.496 95.6265 11.944C95.4985 12.3707 95.2318 12.6693 94.8265 12.84H94.7625C94.6985 12.84 94.6558 12.744 94.6345 12.552C94.6345 12.3387 94.6345 12.1467 94.6345 11.976C94.6345 11.848 94.6345 11.656 94.6345 11.4C94.6345 11.144 94.5811 10.9093 94.4745 10.696C94.3678 10.4613 94.1651 10.344 93.8665 10.344C93.5678 10.344 93.2158 10.44 92.8105 10.632C92.4051 10.8027 91.9998 11.048 91.5945 11.368C91.2105 11.6667 90.8905 11.9867 90.6345 12.328C90.3785 12.6693 90.2505 13 90.2505 13.32C90.2505 13.8533 90.4425 14.3013 90.8265 14.664C91.2318 15.0267 91.7011 15.3467 92.2345 15.624C92.7678 15.9013 93.2265 16.1893 93.6105 16.488C94.0158 16.7867 94.2185 17.1387 94.2185 17.544C94.2185 17.8427 94.1438 18.1307 93.9945 18.408C93.8451 18.664 93.6745 18.8987 93.4825 19.112C93.6958 19.0907 93.9091 19.08 94.1225 19.08C94.3571 19.0587 94.5811 19.048 94.7945 19.048C94.9865 19.048 95.0825 19.1013 95.0825 19.208C95.0825 19.3147 95.0505 19.3893 94.9865 19.432C94.9225 19.4533 94.8371 19.4747 94.7305 19.496C94.4105 19.5387 94.0798 19.5813 93.7385 19.624C93.4185 19.6667 93.0985 19.72 92.7785 19.784C92.1811 20.3173 91.5945 20.6907 91.0185 20.904C90.4425 21.096 89.7491 21.192 88.9385 21.192Z" fill="black"/>
<path d="M96.637 21.608C96.445 21.608 96.349 21.5333 96.349 21.384L96.765 20.168C96.8716 19.8693 96.9463 19.5707 96.989 19.272C97.0316 18.9733 97.0956 18.6747 97.181 18.376C97.3303 17.7573 97.4796 17.1493 97.629 16.552C97.7783 15.9547 97.9383 15.3573 98.109 14.76C98.0663 14.6533 97.9596 14.44 97.789 14.12C97.6183 13.8 97.533 13.5867 97.533 13.48C97.533 13.0107 97.7783 12.776 98.269 12.776C98.4183 12.776 98.5356 12.808 98.621 12.872C98.8983 11.848 99.2076 10.7387 99.549 9.544C99.8903 8.34933 100.306 7.176 100.797 6.024C101.288 4.872 101.906 3.83733 102.653 2.92C103.4 2.00266 104.306 1.29866 105.373 0.807995C105.629 0.701328 105.896 0.615995 106.173 0.551994C106.45 0.466662 106.728 0.423996 107.005 0.423996C107.261 0.423996 107.56 0.477329 107.901 0.583996C108.264 0.690662 108.573 0.850662 108.829 1.064C109.085 1.256 109.213 1.512 109.213 1.832C109.213 1.95999 109.181 2.05599 109.117 2.12C109.096 2.14133 109.01 2.216 108.861 2.344C108.712 2.45066 108.562 2.55733 108.413 2.664C108.264 2.77066 108.168 2.83466 108.125 2.856C108.082 2.81333 108.061 2.78133 108.061 2.75999C108.061 2.696 108.093 2.632 108.157 2.568C108.221 2.50399 108.253 2.42933 108.253 2.344C108.253 2.13066 108.136 1.93866 107.901 1.768C107.666 1.576 107.4 1.42666 107.101 1.32C106.802 1.19199 106.557 1.12799 106.365 1.12799C105.725 1.12799 105.128 1.384 104.573 1.896C104.018 2.38666 103.506 3.048 103.037 3.88C102.589 4.69066 102.173 5.58666 101.789 6.568C101.405 7.54933 101.064 8.53066 100.765 9.512C100.488 10.4933 100.242 11.4 100.029 12.232C99.8156 13.0427 99.645 13.6827 99.517 14.152C99.5596 14.3013 99.5916 14.4293 99.613 14.536C99.6556 14.6427 99.677 14.696 99.677 14.696C100.36 13.8213 101.149 12.9467 102.045 12.072C102.962 11.1973 103.88 10.44 104.797 9.8C104.968 9.69333 105.181 9.64 105.437 9.64C105.586 9.64 105.746 9.672 105.917 9.736C106.109 9.77866 106.205 9.896 106.205 10.088C106.205 10.2587 106.077 10.4613 105.821 10.696C105.565 10.9307 105.277 11.144 104.957 11.336C104.658 11.528 104.445 11.6667 104.317 11.752C103.592 12.2427 102.834 12.7867 102.045 13.384C101.256 13.9813 100.552 14.5787 99.933 15.176C100.146 15.56 100.434 16.0293 100.797 16.584C101.16 17.1173 101.544 17.6507 101.949 18.184C102.376 18.696 102.792 19.1333 103.197 19.496C103.624 19.8373 104.008 20.008 104.349 20.008C104.669 20.008 104.914 19.88 105.085 19.624C105.277 19.368 105.416 19.08 105.501 18.76C105.608 18.4187 105.682 18.1307 105.725 17.896C105.746 17.8533 105.768 17.7573 105.789 17.608C105.832 17.4373 105.896 17.352 105.981 17.352C106.088 17.352 106.152 17.3947 106.173 17.48C106.216 17.5653 106.237 17.6507 106.237 17.736C106.237 17.7787 106.226 17.8213 106.205 17.864C106.205 17.9067 106.205 17.9493 106.205 17.992C106.162 18.3973 106.109 18.856 106.045 19.368C106.002 19.88 105.821 20.296 105.501 20.616C105.138 20.9787 104.722 21.16 104.253 21.16C103.784 21.16 103.293 21 102.781 20.68C102.29 20.3387 101.81 19.912 101.341 19.4C100.893 18.8667 100.488 18.312 100.125 17.736C99.7623 17.1387 99.4636 16.5947 99.229 16.104C99.1223 16.36 98.9943 16.68 98.845 17.064C98.717 17.448 98.5996 17.832 98.493 18.216C98.3863 18.5787 98.3116 18.856 98.269 19.048C98.3543 19.1973 98.397 19.3787 98.397 19.592C98.397 19.976 98.333 20.3067 98.205 20.584C98.077 20.84 97.853 21.064 97.533 21.256C97.405 21.3413 97.2663 21.416 97.117 21.48C96.9676 21.5653 96.8076 21.608 96.637 21.608Z" fill="black"/>
<path d="M114.681 13.928C114.574 13.928 114.521 13.8747 114.521 13.768C114.521 13.704 114.531 13.6507 114.553 13.608C114.681 13.2667 114.777 12.9467 114.841 12.648C114.926 12.328 114.969 11.9973 114.969 11.656C114.969 11.528 114.958 11.3573 114.937 11.144C114.937 10.9093 114.894 10.696 114.809 10.504C114.745 10.312 114.617 10.216 114.425 10.216C114.339 10.216 114.265 10.2267 114.201 10.248C114.137 10.248 114.062 10.248 113.977 10.248C113.763 10.248 113.657 10.1627 113.657 9.992C113.657 9.90666 113.753 9.832 113.945 9.768C114.158 9.704 114.382 9.65066 114.617 9.608C114.851 9.56533 115.011 9.544 115.097 9.544C115.63 9.544 115.961 9.74666 116.089 10.152C116.238 10.536 116.313 10.9413 116.313 11.368C116.313 11.7733 116.238 12.2 116.089 12.648C115.961 13.096 115.715 13.4373 115.353 13.672C115.267 13.736 115.161 13.8 115.033 13.864C114.905 13.9067 114.787 13.928 114.681 13.928ZM109.913 21.224C109.294 21.224 108.857 21.0747 108.601 20.776C108.366 20.4773 108.249 20.04 108.249 19.464C108.249 18.824 108.323 18.184 108.473 17.544C108.622 16.904 108.803 16.2853 109.017 15.688L108.729 15.784C108.622 15.72 108.569 15.6133 108.569 15.464C108.569 15.272 108.654 15.0907 108.825 14.92C109.017 14.728 109.209 14.6213 109.401 14.6C109.529 14.28 109.71 13.864 109.945 13.352C110.179 12.84 110.446 12.328 110.745 11.816C111.065 11.304 111.417 10.8773 111.801 10.536C112.185 10.1947 112.601 10.024 113.049 10.024C113.241 10.024 113.337 10.1093 113.337 10.28C113.337 10.344 113.294 10.4293 113.209 10.536C113.123 10.6213 113.059 10.6853 113.017 10.728C112.739 10.984 112.473 11.3467 112.217 11.816C111.961 12.264 111.726 12.7333 111.513 13.224C111.299 13.6933 111.118 14.1093 110.969 14.472C111.566 14.3867 112.153 14.3227 112.729 14.28C113.326 14.2373 113.923 14.216 114.521 14.216C114.585 14.216 114.745 14.2267 115.001 14.248C115.257 14.248 115.545 14.2693 115.865 14.312C116.185 14.3333 116.451 14.376 116.665 14.44C116.899 14.504 117.017 14.5893 117.017 14.696C117.017 14.7813 116.963 14.8347 116.857 14.856C116.771 14.8773 116.707 14.888 116.665 14.888C116.387 14.888 116.121 14.8667 115.865 14.824C115.609 14.7813 115.342 14.76 115.065 14.76C114.339 14.76 113.603 14.8133 112.857 14.92C112.11 15.0267 111.374 15.1547 110.649 15.304C110.435 15.8587 110.222 16.488 110.009 17.192C109.817 17.896 109.721 18.5573 109.721 19.176C109.721 19.5173 109.785 19.848 109.913 20.168C110.041 20.4667 110.307 20.616 110.713 20.616C111.289 20.616 111.833 20.392 112.345 19.944C112.878 19.4747 113.369 18.952 113.817 18.376C114.265 17.7787 114.638 17.288 114.937 16.904H114.969C115.054 16.904 115.097 16.9467 115.097 17.032C115.118 17.1173 115.129 17.1813 115.129 17.224C115.129 17.5867 115.043 17.928 114.873 18.248C114.702 18.5467 114.489 18.824 114.233 19.08C113.657 19.6133 112.995 20.104 112.249 20.552C111.523 21 110.745 21.224 109.913 21.224Z" fill="black"/>
<path d="M119.014 20.968C118.844 20.968 118.673 20.9147 118.502 20.808C118.353 20.7013 118.278 20.5413 118.278 20.328C118.278 20.1573 118.31 19.976 118.374 19.784C118.438 19.5707 118.481 19.3893 118.502 19.24C118.865 17.832 119.249 16.4347 119.654 15.048C120.081 13.64 120.497 12.2427 120.902 10.856H120.006C119.942 10.856 119.878 10.8667 119.814 10.888C119.75 10.888 119.686 10.888 119.622 10.888H119.494C119.473 10.888 119.462 10.8987 119.462 10.92C119.334 10.856 119.27 10.76 119.27 10.632C119.27 10.5253 119.292 10.44 119.334 10.376C119.398 10.312 119.462 10.2587 119.526 10.216C119.633 10.1093 119.761 10.0453 119.91 10.024C120.081 10.0027 120.241 9.992 120.39 9.992C120.518 9.992 120.646 10.0027 120.774 10.024C120.924 10.024 121.062 10.024 121.19 10.024C121.254 9.832 121.34 9.56533 121.446 9.224C121.553 8.86133 121.649 8.49866 121.734 8.136C121.82 7.77333 121.862 7.50666 121.862 7.336C121.862 7.22933 121.788 7.18666 121.638 7.208C121.51 7.22933 121.436 7.208 121.414 7.144C121.564 6.76 121.692 6.376 121.798 5.992C121.926 5.58666 122.044 5.18133 122.15 4.776C122.193 4.584 122.353 4.424 122.63 4.296C122.908 4.14666 123.142 4.07199 123.334 4.07199C123.526 4.07199 123.654 4.136 123.718 4.264C123.782 4.37066 123.814 4.50933 123.814 4.67999C123.814 4.91466 123.75 5.27733 123.622 5.768C123.494 6.25866 123.345 6.792 123.174 7.368C123.004 7.92266 122.833 8.44533 122.662 8.936C122.513 9.42666 122.396 9.78933 122.31 10.024H125.894C125.916 10.024 125.958 10.056 126.022 10.12C126.022 10.2053 125.873 10.28 125.574 10.344C125.297 10.3867 125.137 10.408 125.094 10.408C124.604 10.4933 124.102 10.568 123.59 10.632C123.078 10.6747 122.566 10.7173 122.054 10.76C121.926 11.1653 121.734 11.7413 121.478 12.488C121.244 13.2347 120.988 14.0347 120.71 14.888C120.454 15.7413 120.23 16.5413 120.038 17.288C119.846 18.0133 119.75 18.5573 119.75 18.92C119.75 19.112 119.782 19.3147 119.846 19.528C119.932 19.72 120.092 19.816 120.326 19.816C120.646 19.816 120.977 19.6987 121.318 19.464C121.681 19.2293 122.022 18.9627 122.342 18.664C122.684 18.3653 122.972 18.0987 123.206 17.864C123.441 17.6293 123.601 17.512 123.686 17.512C123.793 17.512 123.846 17.5867 123.846 17.736C123.846 17.7787 123.836 17.8747 123.814 18.024C123.814 18.1733 123.761 18.248 123.654 18.248C123.441 18.4613 123.132 18.728 122.726 19.048C122.342 19.3467 121.916 19.6453 121.446 19.944C120.998 20.2213 120.55 20.4667 120.102 20.68C119.676 20.872 119.313 20.968 119.014 20.968Z" fill="black"/>
</svg>
